PathFileType	4	(X/Y/Z)	C:\Users\italobelli\Desktop\GitHub\PTbot_officialCBL\Personal_Results\SHRUG22_noisy1.trc
DataRate	CameraRate	NumFrames	NumMarkers	Units	OrigDataRate	OrigDataStartFrame	OrigNumFrames
110.888889	110.888889	47	9	m	110.888889	188	500
Frame#	Time		gu		centelbow		EpL		centpxt8		centijc7		ij		ts		aa		ai
			X1	Y1	Z1	X2	Y2	Z2	X3	Y3	Z3	X4	Y4	Z4	X5	Y5	Z5	X6	Y6	Z6	X7	Y7	Z7	X8	Y8	Z8	X9	Y9	Z9

188	1.6864	-0.12811	0.05022	0.14997	-0.12874	-0.1841	0.21557	-0.12548	-0.17093	0.2448	-0.046816	-0.15316	-0.008669	-0.046816	0.031938	-0.008669	0	0	0	-0.13026	0.042037	0.015068	-0.15874	0.080202	0.12447	-0.14207	-0.063824	0.054764
189	1.6954	-0.12809	0.05022	0.14993	-0.12861	-0.18404	0.21534	-0.12533	-0.17087	0.24457	-0.046816	-0.15316	-0.008669	-0.046816	0.031938	-0.008669	0	0	0	-0.13025	0.042035	0.015047	-0.15873	0.08021	0.12444	-0.14206	-0.063822	0.05475
190	1.7044	-0.12807	0.05022	0.14989	-0.12847	-0.18398	0.2151	-0.12519	-0.17082	0.24434	-0.046816	-0.15316	-0.008669	-0.046816	0.031938	-0.008669	0	0	0	-0.13025	0.042032	0.015028	-0.15871	0.080218	0.12442	-0.14205	-0.06382	0.054735
191	1.7134	-0.12805	0.05022	0.14985	-0.12833	-0.18392	0.21486	-0.12504	-0.17077	0.24409	-0.046816	-0.15316	-0.008669	-0.046816	0.031938	-0.008669	0	0	0	-0.13024	0.042029	0.015008	-0.1587	0.080225	0.1244	-0.14204	-0.063817	0.05472
192	1.7224	-0.12803	0.05022	0.14981	-0.12818	-0.18386	0.21461	-0.1249	-0.17072	0.24385	-0.046816	-0.15316	-0.008669	-0.046816	0.031938	-0.008669	0	0	0	-0.13023	0.042025	0.01499	-0.15869	0.080231	0.12438	-0.14203	-0.063815	0.054704
193	1.7315	-0.12801	0.050219	0.14978	-0.12804	-0.18381	0.21436	-0.12475	-0.17067	0.2436	-0.046816	-0.15316	-0.008669	-0.046816	0.031938	-0.008669	0	0	0	-0.13023	0.042022	0.014972	-0.15867	0.080236	0.12436	-0.14202	-0.063813	0.054688
194	1.7405	-0.12799	0.050219	0.14974	-0.12789	-0.18375	0.21411	-0.1246	-0.17062	0.24336	-0.046816	-0.15316	-0.008669	-0.046816	0.031938	-0.008669	0	0	0	-0.13022	0.042018	0.014954	-0.15866	0.08024	0.12434	-0.14202	-0.063811	0.054671
195	1.7495	-0.12797	0.050218	0.1497	-0.12774	-0.1837	0.21386	-0.12444	-0.17057	0.24311	-0.046816	-0.15316	-0.008669	-0.046816	0.031938	-0.008669	0	0	0	-0.13022	0.042015	0.014937	-0.15865	0.080244	0.12432	-0.14201	-0.063809	0.054654
196	1.7585	-0.12794	0.050217	0.14967	-0.12759	-0.18365	0.21361	-0.12429	-0.17052	0.24286	-0.046816	-0.15316	-0.008669	-0.046816	0.031938	-0.008669	0	0	0	-0.13021	0.042011	0.014921	-0.15863	0.080247	0.12431	-0.142	-0.063807	0.054636
197	1.7675	-0.12792	0.050217	0.14964	-0.12744	-0.1836	0.21336	-0.12414	-0.17048	0.24261	-0.046816	-0.15316	-0.008669	-0.046816	0.031938	-0.008669	0	0	0	-0.13021	0.042007	0.014905	-0.15862	0.080249	0.12429	-0.14199	-0.063806	0.054617
198	1.7766	-0.12789	0.050216	0.14961	-0.12729	-0.18354	0.21311	-0.12398	-0.17043	0.24237	-0.046816	-0.15316	-0.008669	-0.046816	0.031938	-0.008669	0	0	0	-0.1302	0.042003	0.01489	-0.1586	0.08025	0.12428	-0.14199	-0.063804	0.054599
199	1.7856	-0.12787	0.050215	0.14958	-0.12714	-0.18349	0.21287	-0.12383	-0.17039	0.24212	-0.046816	-0.15316	-0.008669	-0.046816	0.031938	-0.008669	0	0	0	-0.13019	0.042	0.014876	-0.15858	0.080251	0.12426	-0.14198	-0.063802	0.054579
200	1.7946	-0.12784	0.050214	0.14955	-0.12699	-0.18345	0.21263	-0.12368	-0.17034	0.24188	-0.046816	-0.15316	-0.008669	-0.046816	0.031938	-0.008669	0	0	0	-0.13019	0.041996	0.014862	-0.15857	0.08025	0.12425	-0.14197	-0.063801	0.05456
201	1.8036	-0.12782	0.050214	0.14952	-0.12685	-0.1834	0.21239	-0.12353	-0.1703	0.24165	-0.046816	-0.15316	-0.008669	-0.046816	0.031938	-0.008669	0	0	0	-0.13019	0.041993	0.014848	-0.15855	0.080249	0.12424	-0.14197	-0.063799	0.05454
202	1.8126	-0.12779	0.050213	0.14949	-0.1267	-0.18335	0.21216	-0.12338	-0.17026	0.24142	-0.046816	-0.15316	-0.008669	-0.046816	0.031938	-0.008669	0	0	0	-0.13018	0.041989	0.014835	-0.15853	0.080248	0.12422	-0.14196	-0.063798	0.05452
203	1.8216	-0.12776	0.050213	0.14947	-0.12656	-0.1833	0.21193	-0.12323	-0.17021	0.2412	-0.046816	-0.15316	-0.008669	-0.046816	0.031938	-0.008669	0	0	0	-0.13018	0.041986	0.014823	-0.15852	0.080245	0.12421	-0.14196	-0.063797	0.0545
204	1.8307	-0.12773	0.050213	0.14945	-0.12641	-0.18325	0.21172	-0.12308	-0.17017	0.24099	-0.046816	-0.15316	-0.008669	-0.046816	0.031938	-0.008669	0	0	0	-0.13017	0.041983	0.014811	-0.1585	0.080242	0.1242	-0.14195	-0.063796	0.054479
205	1.8397	-0.12771	0.050213	0.14942	-0.12627	-0.18321	0.21151	-0.12294	-0.17013	0.24078	-0.046816	-0.15316	-0.008669	-0.046816	0.031938	-0.008669	0	0	0	-0.13017	0.041981	0.0148	-0.15848	0.080238	0.12419	-0.14195	-0.063794	0.054458
206	1.8487	-0.12768	0.050213	0.1494	-0.12614	-0.18316	0.21131	-0.1228	-0.17009	0.24058	-0.046816	-0.15316	-0.008669	-0.046816	0.031938	-0.008669	0	0	0	-0.13016	0.041978	0.014789	-0.15847	0.080233	0.12419	-0.14194	-0.063793	0.054438
207	1.8577	-0.12765	0.050213	0.14939	-0.126	-0.18312	0.21112	-0.12267	-0.17005	0.2404	-0.046816	-0.15316	-0.008669	-0.046816	0.031938	-0.008669	0	0	0	-0.13016	0.041976	0.014779	-0.15845	0.080227	0.12418	-0.14194	-0.063792	0.054417
208	1.8667	-0.12762	0.050214	0.14937	-0.12587	-0.18307	0.21095	-0.12253	-0.17001	0.24022	-0.046816	-0.15316	-0.008669	-0.046816	0.031938	-0.008669	0	0	0	-0.13015	0.041974	0.01477	-0.15843	0.080221	0.12417	-0.14193	-0.063792	0.054395
209	1.8758	-0.12759	0.050215	0.14935	-0.12575	-0.18302	0.21078	-0.1224	-0.16997	0.24006	-0.046816	-0.15316	-0.008669	-0.046816	0.031938	-0.008669	0	0	0	-0.13015	0.041973	0.014761	-0.15841	0.080214	0.12417	-0.14193	-0.063791	0.054374
210	1.8848	-0.12756	0.050216	0.14934	-0.12563	-0.18298	0.21063	-0.12228	-0.16993	0.23991	-0.046816	-0.15316	-0.008669	-0.046816	0.031938	-0.008669	0	0	0	-0.13015	0.041972	0.014752	-0.15839	0.080206	0.12416	-0.14192	-0.06379	0.054353
211	1.8938	-0.12753	0.050218	0.14933	-0.12551	-0.18293	0.21049	-0.12216	-0.16989	0.23977	-0.046816	-0.15316	-0.008669	-0.046816	0.031938	-0.008669	0	0	0	-0.13014	0.041972	0.014744	-0.15838	0.080198	0.12416	-0.14192	-0.063789	0.054332
212	1.9028	-0.1275	0.05022	0.14931	-0.1254	-0.18289	0.21036	-0.12205	-0.16985	0.23965	-0.046816	-0.15316	-0.008669	-0.046816	0.031938	-0.008669	0	0	0	-0.13014	0.041972	0.014737	-0.15836	0.080189	0.12416	-0.14192	-0.063789	0.05431
213	1.9118	-0.12747	0.050223	0.14931	-0.12529	-0.18284	0.21026	-0.12194	-0.16981	0.23955	-0.046816	-0.15316	-0.008669	-0.046816	0.031938	-0.008669	0	0	0	-0.13014	0.041973	0.01473	-0.15834	0.080179	0.12416	-0.14191	-0.063788	0.054289
214	1.9208	-0.12744	0.050226	0.1493	-0.12519	-0.1828	0.21016	-0.12183	-0.16977	0.23946	-0.046816	-0.15316	-0.008669	-0.046816	0.031938	-0.008669	0	0	0	-0.13013	0.041974	0.014724	-0.15832	0.080168	0.12416	-0.14191	-0.063788	0.054268
215	1.9299	-0.12741	0.050229	0.14929	-0.12509	-0.18275	0.21009	-0.12174	-0.16973	0.23939	-0.046816	-0.15316	-0.008669	-0.046816	0.031938	-0.008669	0	0	0	-0.13013	0.041976	0.014718	-0.1583	0.080156	0.12416	-0.14191	-0.063788	0.054247
216	1.9389	-0.12738	0.050233	0.14929	-0.12501	-0.1827	0.21003	-0.12165	-0.16969	0.23933	-0.046816	-0.15316	-0.008669	-0.046816	0.031938	-0.008669	0	0	0	-0.13013	0.041979	0.014713	-0.15828	0.080144	0.12416	-0.1419	-0.063787	0.054226
217	1.9479	-0.12735	0.050238	0.14929	-0.12493	-0.18266	0.21	-0.12156	-0.16965	0.2393	-0.046816	-0.15316	-0.008669	-0.046816	0.031938	-0.008669	0	0	0	-0.13012	0.041982	0.014708	-0.15827	0.080131	0.12416	-0.1419	-0.063787	0.054206
218	1.9569	-0.12732	0.050243	0.14929	-0.12485	-0.18261	0.20998	-0.12149	-0.16961	0.23929	-0.046816	-0.15316	-0.008669	-0.046816	0.031938	-0.008669	0	0	0	-0.13012	0.041986	0.014704	-0.15825	0.080118	0.12417	-0.1419	-0.063787	0.054185
219	1.9659	-0.12729	0.050248	0.14929	-0.12479	-0.18256	0.20999	-0.12142	-0.16957	0.23929	-0.046816	-0.15316	-0.008669	-0.046816	0.031938	-0.008669	0	0	0	-0.13012	0.041991	0.014701	-0.15823	0.080103	0.12417	-0.1419	-0.063787	0.054165
220	1.9749	-0.12726	0.050254	0.14929	-0.12473	-0.18252	0.21001	-0.12136	-0.16953	0.23932	-0.046816	-0.15316	-0.008669	-0.046816	0.031938	-0.008669	0	0	0	-0.13012	0.041996	0.014698	-0.15821	0.080088	0.12418	-0.14189	-0.063787	0.054145
221	1.984	-0.12722	0.050261	0.1493	-0.12468	-0.18247	0.21006	-0.12131	-0.16949	0.23938	-0.046816	-0.15316	-0.008669	-0.046816	0.031938	-0.008669	0	0	0	-0.13011	0.042003	0.014695	-0.15819	0.080073	0.12418	-0.14189	-0.063787	0.054126
222	1.993	-0.12719	0.050269	0.1493	-0.12464	-0.18242	0.21014	-0.12127	-0.16944	0.23945	-0.046816	-0.15316	-0.008669	-0.046816	0.031938	-0.008669	0	0	0	-0.13011	0.04201	0.014693	-0.15817	0.080056	0.12419	-0.14189	-0.063788	0.054107
223	2.002	-0.12716	0.050277	0.14931	-0.1246	-0.18237	0.21023	-0.12123	-0.1694	0.23955	-0.046816	-0.15316	-0.008669	-0.046816	0.031938	-0.008669	0	0	0	-0.13011	0.042018	0.014692	-0.15816	0.080039	0.1242	-0.14189	-0.063788	0.054088
224	2.011	-0.12713	0.050285	0.14932	-0.12458	-0.18232	0.21035	-0.1212	-0.16936	0.23967	-0.046816	-0.15316	-0.008669	-0.046816	0.031938	-0.008669	0	0	0	-0.13011	0.042026	0.01469	-0.15814	0.080022	0.12421	-0.14189	-0.063788	0.054069
225	2.02	-0.1271	0.050294	0.14933	-0.12455	-0.18227	0.21047	-0.12118	-0.16931	0.2398	-0.046816	-0.15316	-0.008669	-0.046816	0.031938	-0.008669	0	0	0	-0.1301	0.042035	0.014689	-0.15812	0.080004	0.12422	-0.14189	-0.063789	0.05405
226	2.0291	-0.12707	0.050303	0.14934	-0.12453	-0.18221	0.2106	-0.12115	-0.16927	0.23993	-0.046816	-0.15316	-0.008669	-0.046816	0.031938	-0.008669	0	0	0	-0.1301	0.042043	0.014688	-0.1581	0.079987	0.12423	-0.14189	-0.063789	0.054031
227	2.0381	-0.12704	0.050313	0.14935	-0.12451	-0.18216	0.21074	-0.12113	-0.16922	0.24008	-0.046816	-0.15316	-0.008669	-0.046816	0.031938	-0.008669	0	0	0	-0.1301	0.042051	0.014686	-0.15808	0.07997	0.12424	-0.14189	-0.06379	0.054012
228	2.0471	-0.12701	0.050322	0.14936	-0.12449	-0.18211	0.21089	-0.12111	-0.16918	0.24023	-0.046816	-0.15316	-0.008669	-0.046816	0.031938	-0.008669	0	0	0	-0.1301	0.04206	0.014685	-0.15807	0.079952	0.12425	-0.14188	-0.06379	0.053993
229	2.0561	-0.12698	0.050332	0.14937	-0.12447	-0.18205	0.21105	-0.1211	-0.16913	0.24039	-0.046816	-0.15316	-0.008669	-0.046816	0.031938	-0.008669	0	0	0	-0.1301	0.042068	0.014683	-0.15805	0.079935	0.12426	-0.14188	-0.06379	0.053974
230	2.0651	-0.12695	0.050342	0.14938	-0.12446	-0.182	0.21122	-0.12108	-0.16908	0.24056	-0.046816	-0.15316	-0.008669	-0.046816	0.031938	-0.008669	0	0	0	-0.13009	0.042076	0.014682	-0.15803	0.079917	0.12427	-0.14188	-0.063791	0.053955
231	2.0741	-0.12692	0.050352	0.14939	-0.12444	-0.18194	0.21139	-0.12107	-0.16903	0.24074	-0.046816	-0.15316	-0.008669	-0.046816	0.031938	-0.008669	0	0	0	-0.13009	0.042085	0.014681	-0.15801	0.0799	0.12428	-0.14188	-0.063791	0.053935
232	2.0832	-0.12689	0.050362	0.1494	-0.12443	-0.18189	0.21157	-0.12106	-0.16899	0.24092	-0.046816	-0.15316	-0.008669	-0.046816	0.031938	-0.008669	0	0	0	-0.13009	0.042093	0.014679	-0.158	0.079882	0.12429	-0.14188	-0.063792	0.053916
233	2.0922	-0.12686	0.050372	0.14941	-0.12442	-0.18183	0.21176	-0.12105	-0.16894	0.24111	-0.046816	-0.15316	-0.008669	-0.046816	0.031938	-0.008669	0	0	0	-0.13009	0.042102	0.014678	-0.15798	0.079865	0.1243	-0.14188	-0.063792	0.053896
234	2.1012	-0.12683	0.050383	0.14942	-0.12441	-0.18177	0.21196	-0.12104	-0.16889	0.24131	-0.046816	-0.15316	-0.008669	-0.046816	0.031938	-0.008669	0	0	0	-0.13008	0.04211	0.014677	-0.15796	0.079847	0.12431	-0.14188	-0.063792	0.053876
